<?xml version="1.0" encoding="utf-8"?>
<!-- Generator: Adobe Illustrator 19.0.0, SVG Export Plug-In . SVG Version: 6.00 Build 0)  -->
<svg version="1.1" id="Layer_1" xmlns="http://www.w3.org/2000/svg" xmlns:xlink="http://www.w3.org/1999/xlink" x="0px" y="0px"
	 viewBox="-255 347 100 100" style="enable-background:new -255 347 100 100;" xml:space="preserve">
<g>
	<g>
		<path d="M-205.4,355.3c0.1,0,0.2,0,0.2,0c3.7,4.6,7.4,9.1,11.1,13.7c7.4,9.2,14.9,18.4,22.3,27.6c0,0.1,0,0.2,0,0.2
			c-8.6,11.1-17.2,22.3-25.7,33.4c-2.3,2.9-4.5,5.9-6.8,8.9c-0.4-0.4-0.6-0.7-0.9-1c-9.5-11.8-19-23.5-28.4-35.2
			c-1.3-1.6-2.7-3.2-4.1-4.8c0-0.2,0-0.3,0-0.5c0.2-0.2,0.3-0.3,0.5-0.5c9-11.7,18-23.3,26.9-35C-208.7,359.8-207,357.6-205.4,355.3
			z"/>
	</g>
</g>
</svg>
