<?xml version="1.0" encoding="utf-8"?>
<!-- Generator: Adobe Illustrator 19.0.0, SVG Export Plug-In . SVG Version: 6.00 Build 0)  -->
<svg version="1.1" id="Layer_1" xmlns="http://www.w3.org/2000/svg" xmlns:xlink="http://www.w3.org/1999/xlink" x="0px" y="0px"
	 viewBox="-255 347 100 100" style="enable-background:new -255 347 100 100;" xml:space="preserve">
<g>
	<g>
		<path d="M-237.8,397.6c4.5-5.8,9-11.6,13.5-17.4c6.2-8,12.3-16,18.5-24c0.2-0.2,0.3-0.5,0.5-0.8c0.1,0,0.2,0,0.2,0
			c11,13.7,22.1,27.3,33.1,41c0.1,0.1,0.2,0.2,0.2,0.3c0,0.1,0,0.2,0,0.2c-8.6,11.1-17.2,22.3-25.7,33.4c-2.3,2.9-4.5,5.9-6.9,8.9
			c-2.1-2.6-4.1-5.1-6.2-7.6c-8.8-10.9-17.7-21.9-26.5-32.8c-0.2-0.3-0.5-0.5-0.8-0.7C-237.8,397.9-237.8,397.7-237.8,397.6z
			 M-204.8,359.6c-9.8,12.6-19.6,25.1-29.4,37.7c9.8,12.6,19.5,25.1,29.4,37.7c9.8-12.6,19.6-25.1,29.4-37.7
			C-185.2,384.7-195,372.2-204.8,359.6z"/>
	</g>
</g>
</svg>
