<?xml version="1.0" encoding="utf-8"?>
<!-- Generator: Adobe Illustrator 19.0.0, SVG Export Plug-In . SVG Version: 6.00 Build 0)  -->
<svg version="1.1" id="Layer_1" xmlns="http://www.w3.org/2000/svg" xmlns:xlink="http://www.w3.org/1999/xlink" x="0px" y="0px"
	 viewBox="-255 347 100 100" style="enable-background:new -255 347 100 100;" xml:space="preserve">
<g>
	<g>
		<path d="M-208,362c2.2,0,4.3,0,6.5,0c0.8,0.2,1.6,0.3,2.4,0.4c18.7,2.9,32.9,20.9,28.9,41.6c-3.3,16.7-17.5,28.2-34.5,28.3
			c-15.9,0.1-30.1-10.7-34.1-26.1c-0.5-1.9-0.8-3.9-1.2-5.8c0-2.2,0-4.3,0-6.5c0.1-0.2,0.2-0.4,0.2-0.7c1.7-14.9,12.4-26.9,27-30.4
			C-211.2,362.6-209.6,362.3-208,362z M-173.5,397.1c-0.5-11.9-5.6-20.9-15.7-26.9c-10.8-6.4-24.5-5.5-34.4,2.2
			c-8,6.2-12.1,14.5-12.3,24.7C-215.1,397.1-194.4,397.1-173.5,397.1z"/>
	</g>
</g>
</svg>
