<?xml version="1.0" encoding="utf-8"?>
<!-- Generator: Adobe Illustrator 19.0.0, SVG Export Plug-In . SVG Version: 6.00 Build 0)  -->
<svg version="1.1" id="Layer_1" xmlns="http://www.w3.org/2000/svg" xmlns:xlink="http://www.w3.org/1999/xlink" x="0px" y="0px"
	 viewBox="-255 347 100 100" style="enable-background:new -255 347 100 100;" xml:space="preserve">
<g>
	<g>
		<path d="M-208,362c2.2,0,4.3,0,6.5,0c0.8,0.2,1.6,0.3,2.4,0.4c18.7,2.9,32.9,20.9,28.9,41.6c-3.3,16.7-17.5,28.2-34.5,28.3
			c-15.9,0.1-30.1-10.7-34.1-26.1c-0.5-1.9-0.8-3.9-1.2-5.8c0-2.2,0-4.3,0-6.5c0.1-0.2,0.2-0.4,0.2-0.7c1.7-14.9,12.4-26.9,27-30.4
			C-211.2,362.6-209.6,362.3-208,362z M-173.7,397.2c0.4-9.8-5.3-22.5-18.2-28.4c-12-5.5-26.6-2.6-35.6,7.1
			c-9.3,10-11.1,24.4-4.7,36.3c6.5,11.9,18.9,16.6,27,16.1c0-10.3,0-20.6,0-31C-194.6,397.2-184.2,397.2-173.7,397.2z"/>
	</g>
</g>
</svg>
