<?xml version="1.0" encoding="utf-8"?>
<!-- Generator: Adobe Illustrator 19.0.0, SVG Export Plug-In . SVG Version: 6.00 Build 0)  -->
<svg version="1.1" id="Layer_1" xmlns="http://www.w3.org/2000/svg" xmlns:xlink="http://www.w3.org/1999/xlink" x="0px" y="0px"
	 viewBox="-255 347 100 100" style="enable-background:new -255 347 100 100;" xml:space="preserve">
<g>
	<g>
		<path d="M-208.2,364c2.3,0,4.6,0,7,0c0.2,0.1,0.4,0.2,0.6,0.2c13.3,1.6,24.6,11.4,27.9,24.4c0.5,2,0.8,4,1.2,6.1c0,1.7,0,3.4,0,5
			c-0.1,0.3-0.2,0.5-0.2,0.8c-1.3,13.9-11.7,25.8-25.3,29c-1.7,0.4-3.5,0.7-5.2,1c-1.7,0-3.4,0-5,0c-0.3-0.1-0.5-0.2-0.8-0.2
			c-13.8-1.3-25.7-11.4-29-24.9c-0.4-1.5-0.7-3.1-1-4.6c0-2.3,0-4.6,0-7c0.1-0.2,0.2-0.3,0.2-0.5c1.8-13.8,11.2-24.6,24.6-28.2
			C-211.5,364.7-209.9,364.4-208.2,364z"/>
	</g>
</g>
</svg>
