<?xml version="1.0" encoding="utf-8"?>
<!-- Generator: Adobe Illustrator 19.0.0, SVG Export Plug-In . SVG Version: 6.00 Build 0)  -->
<svg version="1.1" id="Layer_1" xmlns="http://www.w3.org/2000/svg" xmlns:xlink="http://www.w3.org/1999/xlink" x="0px" y="0px"
	 viewBox="-255 347 100 100" style="enable-background:new -255 347 100 100;" xml:space="preserve">
<g>
	<g>
		<path d="M-208,362c2.2,0,4.3,0,6.5,0c0.8,0.2,1.6,0.3,2.4,0.4c19,3,32.9,21.3,28.8,41.8c-3.3,16.7-18.4,28.4-34.9,28.1
			c-15.5-0.2-29.6-10.9-33.5-25.9c-0.5-2-0.8-4-1.2-6.1c0-2.2,0-4.3,0-6.5c0.1-0.2,0.2-0.4,0.2-0.7c1.7-14.9,12.4-26.9,27-30.4
			C-211.2,362.6-209.6,362.3-208,362z M-173.6,397.3c0-17.1-13.9-31.2-30.8-31.2c-17.5,0-31.5,13.7-31.5,30.9
			c0,17.3,13.8,31.4,30.8,31.4C-187.5,428.4-173.6,414.6-173.6,397.3z"/>
	</g>
</g>
</svg>
