<?xml version="1.0" encoding="utf-8"?>
<!-- Generator: Adobe Illustrator 19.0.0, SVG Export Plug-In . SVG Version: 6.00 Build 0)  -->
<svg version="1.1" id="Layer_1" xmlns="http://www.w3.org/2000/svg" xmlns:xlink="http://www.w3.org/1999/xlink" x="0px" y="0px"
	 viewBox="-255 347 100 100" style="enable-background:new -255 347 100 100;" xml:space="preserve">
<g>
	<g>
		<path d="M-240,400.4c0-2.2,0-4.3,0-6.5c0.1-0.2,0.2-0.4,0.2-0.7c1.7-14.9,12.4-26.9,27-30.4c1.5-0.4,3.1-0.6,4.7-0.9
			c2.2,0,4.3,0,6.5,0c0.8,0.2,1.6,0.3,2.4,0.4c18.7,2.9,32.9,20.9,28.9,41.6c-3.3,16.7-17.5,28.2-34.5,28.3
			c-15.9,0.1-30.1-10.7-34.1-26.1C-239.3,404.4-239.6,402.4-240,400.4z M-204.7,397.1c10.4,0,20.7,0,31,0
			c0.3-17.9-15.8-31.7-31-30.8C-204.7,376.5-204.7,386.8-204.7,397.1z"/>
	</g>
</g>
</svg>
