<?xml version="1.0" encoding="utf-8"?>
<!-- Generator: Adobe Illustrator 19.0.0, SVG Export Plug-In . SVG Version: 6.00 Build 0)  -->
<svg version="1.1" id="Layer_1" xmlns="http://www.w3.org/2000/svg" xmlns:xlink="http://www.w3.org/1999/xlink" x="0px" y="0px"
	 viewBox="-255 347 100 100" style="enable-background:new -255 347 100 100;" xml:space="preserve">
<g>
	<g>
		<path d="M-197.2,413.7c-1.8,1.7-3.5,3.5-5.3,5.2c-0.2,0.2-0.6,0.4-0.9,0.4c-7.6,0-15.1,0-22.7,0c-0.1,0-0.1,0-0.3-0.1
			c0-0.3-0.1-0.7-0.1-1.1c0-7.1,0-14.2,0-21.2c0-0.8,0.2-1.3,0.8-1.9c1.6-1.7,3.2-3.5,4.8-5.2c0.2,0.1,0.3,0.2,0.5,0.4
			c0,6.3,0,12.6,0,19.1c11.3-11.3,22.5-22.4,33.5-33.5c1.4,1.4,2.8,2.8,4.1,4.1c-11,11-22.1,22.1-33.2,33.2c0.1,0.1,0.1,0.2,0.2,0.4
			c6.2,0,12.4,0,18.6,0C-197.3,413.5-197.3,413.6-197.2,413.7z"/>
	</g>
</g>
</svg>
