<?xml version="1.0" encoding="utf-8"?>
<!-- Generator: Adobe Illustrator 19.0.0, SVG Export Plug-In . SVG Version: 6.00 Build 0)  -->
<svg version="1.1" id="Layer_1" xmlns="http://www.w3.org/2000/svg" xmlns:xlink="http://www.w3.org/1999/xlink" x="0px" y="0px"
	 viewBox="-255 347 100 100" style="enable-background:new -255 347 100 100;" xml:space="preserve">
<g>
	<g>
		<path d="M-191.9,387c0.1,2.9-1.1,5.3-3.1,7.3c-1.6,1.6-3.3,3.2-5,4.6c-2,1.7-3.3,3.7-3.7,6.3c-0.4,2.3-2.1,3.4-4.4,2.9
			c-1.6-0.3-2.7-1.7-2.7-3.6c-0.1-2.9,0.7-5.6,2.8-7.7c1.9-1.9,4-3.7,5.9-5.6c1.8-1.7,2.7-3.7,1.8-6.2c-0.9-2.2-3.1-3.5-5.9-3.5
			c-2.8,0-4.8,1.2-6,3.7c-0.5,1-0.9,2.1-1.3,3.1c-0.9,2.4-2.7,3.4-4.8,2.8c-2-0.6-3.1-2.5-2.7-4.8c1.1-5.6,4.9-8.9,10.2-10.3
			c4.7-1.3,9.3-0.9,13.5,1.6C-193.9,379.6-191.9,382.8-191.9,387z"/>
		<path d="M-202.5,415.2c0,2.5-1.8,4.4-4.4,4.4c-2.6,0-4.5-1.8-4.5-4.4c0-2.5,2-4.5,4.5-4.4C-204.3,410.8-202.5,412.7-202.5,415.2z"
			/>
	</g>
</g>
</svg>
