<?xml version="1.0" encoding="utf-8"?>
<!-- Generator: Adobe Illustrator 19.0.0, SVG Export Plug-In . SVG Version: 6.00 Build 0)  -->
<svg version="1.1" id="Layer_1" xmlns="http://www.w3.org/2000/svg" xmlns:xlink="http://www.w3.org/1999/xlink" x="0px" y="0px"
	 viewBox="-255 347 100 100" style="enable-background:new -255 347 100 100;" xml:space="preserve">
<g>
	<g>
		<path d="M-222,419.3c-1.6-1.6-2.9-2.9-4.3-4.3c11.1-11.1,22.1-22.1,33.2-33.2c0-0.1-0.1-0.2-0.1-0.3c-6.2,0-12.4,0-18.9,0
			c2-2,3.9-3.9,5.7-5.7c0.2-0.2,0.6-0.3,0.9-0.3c7.5,0,15,0,22.6,0c0.1,0,0.2,0,0.3,0.1c0,0.3,0.1,0.7,0.1,1.1c0,7.1,0,14.2,0,21.4
			c0,0.8-0.3,1.3-0.8,1.9c-1.6,1.7-3.1,3.4-4.7,5.1c-0.2-0.1-0.3-0.2-0.5-0.3c0-6.3,0-12.5,0-18.9
			C-199.8,397.1-210.9,408.2-222,419.3z"/>
	</g>
</g>
</svg>
